<?xml version="1.0" encoding="UTF-8" standalone="no"?>
<svg xmlns="http://www.w3.org/2000/svg" viewBox="0 0 80.738 77.459">
    <path d="m 26.055435,77.902787 c -4.868468,-1.36732 -8.027381,-5.07672 -8.992881,-10.56003 l -0.232939,-1.32292 h -2.782961 -2.782962 v -8.07463 -8.07462 l -1.146528,-0.21886 c -1.9614539,-0.37442 -4.8263769,-1.90031 -6.0965569,-3.24709 -2.568028,-2.72291 -3.849839,-6.934 -3.313553,-10.88589 0.69276,-5.105 4.647593,-9.56641 9.113153,-10.28049 l 1.4434849,-0.23082 V 12.881697 0.75594714 H 40.720636 70.177578 V 12.926777 25.097617 h 1.17838 c 1.69495,0 5.3075,1.9275 6.73231,3.59206 3.4519,4.03277 4.23147,9.96105 1.90863,14.5142 -1.63659,3.20798 -5.1828,5.93695 -8.37905,6.44805 l -1.44027,0.23031 v 8.0688 8.0688 h -14.953 -14.952997 l -0.233295,1.6757 c -0.345211,2.47956 -2.056882,5.72294 -3.982321,7.54595 -2.587227,2.44959 -6.780802,3.56556 -10.00053,2.6613 z"/>
</svg>
