<?xml version="1.0" encoding="UTF-8" standalone="no"?>
<svg
   xmlns:dc="http://purl.org/dc/elements/1.1/"
   xmlns:cc="http://creativecommons.org/ns#"
   xmlns:rdf="http://www.w3.org/1999/02/22-rdf-syntax-ns#"
   xmlns:svg="http://www.w3.org/2000/svg"
   xmlns="http://www.w3.org/2000/svg"
   id="svg34"
   version="1.1"
   viewBox="0 0 210 297"
   height="297mm"
   width="210mm">
  <defs
     id="defs28" />
  <metadata
     id="metadata31">
    <rdf:RDF>
      <cc:Work
         rdf:about="">
        <dc:format>image/svg+xml</dc:format>
        <dc:type
           rdf:resource="http://purl.org/dc/dcmitype/StillImage" />
        <dc:title></dc:title>
      </cc:Work>
    </rdf:RDF>
  </metadata>
  <g
     id="layer1">
    <path
       id="path66"
       d="m 0,56.620838 v -8.643057 h 1.05454 c 1.58769,0 4.44341,-1.206083 6.13206,-2.589805 0.83344,-0.682943 2.04269,-2.227016 2.71445,-3.466038 1.10981,-2.046972 1.21145,-2.486008 1.21145,-5.233046 0,-2.56249 -0.14215,-3.288069 -0.97736,-4.988811 C 8.47071,28.310814 5.09432,25.771664 1.48432,25.1944 L 0,24.957047 V 12.478523 0 H 34.74861 69.49722 V 32.631947 65.263898 H 54.32777 c -11.87405,0 -15.18016,-0.0958 -15.21879,-0.44098 -0.0271,-0.24253 -0.0831,-1.01066 -0.12446,-1.70694 -0.0985,-1.659682 -1.54844,-4.786648 -2.97071,-6.406523 -0.62309,-0.709665 -2.10083,-1.773982 -3.28387,-2.365153 -3.90218,-1.949944 -7.50698,-1.291964 -10.88736,1.987261 -1.87388,1.817808 -3.50142,5.017478 -3.77164,7.414915 l -0.17104,1.51742 H 8.94995 0 Z"
       style="fill:#000000;stroke-width:0.352778" />
  </g>
</svg>
