<?xml version="1.0" encoding="UTF-8" standalone="no"?>
<svg xmlns="http://www.w3.org/2000/svg" version="1.1" viewBox="0 0 72.605072 77.708313" fill="currentColor">
    <path fill="currentColor" d="m 35.913155,77.578336 c -2.21722,-0.3429 -5.02509,-1.91869 -6.509954,-3.65341 -2.257128,-2.63695 -2.970211,-4.37658 -3.369435,-8.22007 -0.03573,-0.34397 -2.904215,-0.44097 -13.039785,-0.44097 H 0 V 32.63195 0 h 36.302545 36.30253 l -0.0993,2.38125 c -0.0546,1.30969 -0.11889,6.91805 -0.14282,12.46302 l -0.0435,10.08178 -1.84077,0.4249 c -3.63183,0.83832 -6.28525,3.07269 -7.99902,6.73573 -1.30538,2.79013 -1.29407,6.43791 0.0287,9.26715 0.90199,1.9292 3.43846,4.86006 4.20608,4.86006 0.20005,0 0.59696,0.23323 0.88202,0.5183 0.28506,0.28506 1.4514,0.71102 2.59186,0.94658 1.64783,0.34035 2.09759,0.57799 2.19054,1.1574 0.0643,0.40101 0.0376,4.2742 -0.0594,8.607086 l -0.17639,7.87799 -11.33479,-0.0418 -11.3348,-0.0418 -0.24313,1.946 c -0.82731,6.62151 -6.92735,11.38289 -13.31718,10.3947 z"/>
</svg>
